<mxfile host="Electron" modified="2023-10-28T16:16:35.789Z" agent="Mozilla/5.0 (X11; Linux x86_64) AppleWebKit/537.36 (KHTML, like Gecko) draw.io/22.0.2 Chrome/118.0.5993.54 Electron/27.0.0 Safari/537.36" etag="f7B7iTdrK_i-pV-oFYaC" version="22.0.2" type="device">
  <diagram name="Page-1" id="pTte0A_vESvlkvIG6SEQ">
    <mxGraphModel dx="1770" dy="1067" grid="1" gridSize="10" guides="1" tooltips="1" connect="1" arrows="1" fold="1" page="1" pageScale="1" pageWidth="850" pageHeight="1100" math="1" shadow="0">
      <root>
        <mxCell id="0" />
        <mxCell id="1" parent="0" />
        <mxCell id="ctY38Mj-LC-3eXCGMCmi-2" value="" style="ellipse;whiteSpace=wrap;html=1;aspect=fixed;" parent="1" vertex="1">
          <mxGeometry x="570" y="470" width="60" height="60" as="geometry" />
        </mxCell>
        <mxCell id="ctY38Mj-LC-3eXCGMCmi-3" value="" style="ellipse;whiteSpace=wrap;html=1;aspect=fixed;fillColor=#000000;" parent="1" vertex="1">
          <mxGeometry x="575" y="475" width="50" height="50" as="geometry" />
        </mxCell>
        <mxCell id="ctY38Mj-LC-3eXCGMCmi-4" value="" style="ellipse;whiteSpace=wrap;html=1;aspect=fixed;fillColor=#000000;" parent="1" vertex="1">
          <mxGeometry x="140" y="465" width="60" height="60" as="geometry" />
        </mxCell>
        <mxCell id="ctY38Mj-LC-3eXCGMCmi-5" value="&lt;font style=&quot;font-size: 24px;&quot;&gt;End&lt;/font&gt;" style="text;html=1;strokeColor=none;fillColor=none;align=center;verticalAlign=middle;whiteSpace=wrap;rounded=0;" parent="1" vertex="1">
          <mxGeometry x="570" y="430" width="60" height="30" as="geometry" />
        </mxCell>
        <mxCell id="ctY38Mj-LC-3eXCGMCmi-6" value="&lt;font style=&quot;font-size: 24px;&quot;&gt;Start&lt;/font&gt;" style="text;html=1;strokeColor=none;fillColor=none;align=center;verticalAlign=middle;whiteSpace=wrap;rounded=0;" parent="1" vertex="1">
          <mxGeometry x="140" y="425" width="60" height="30" as="geometry" />
        </mxCell>
        <mxCell id="ctY38Mj-LC-3eXCGMCmi-7" value="`i`" style="ellipse;whiteSpace=wrap;html=1;aspect=fixed;fontSize=24;" parent="1" vertex="1">
          <mxGeometry x="300" y="470" width="60" height="60" as="geometry" />
        </mxCell>
        <mxCell id="ctY38Mj-LC-3eXCGMCmi-8" value="`j_2`" style="ellipse;whiteSpace=wrap;html=1;aspect=fixed;fontSize=24;" parent="1" vertex="1">
          <mxGeometry x="410" y="470" width="60" height="60" as="geometry" />
        </mxCell>
        <mxCell id="ctY38Mj-LC-3eXCGMCmi-9" value="`j_1`" style="ellipse;whiteSpace=wrap;html=1;aspect=fixed;fontSize=24;" parent="1" vertex="1">
          <mxGeometry x="410" y="380" width="60" height="60" as="geometry" />
        </mxCell>
        <mxCell id="ctY38Mj-LC-3eXCGMCmi-10" value="`j_3`" style="ellipse;whiteSpace=wrap;html=1;aspect=fixed;fontSize=24;" parent="1" vertex="1">
          <mxGeometry x="410" y="550" width="60" height="60" as="geometry" />
        </mxCell>
        <mxCell id="ctY38Mj-LC-3eXCGMCmi-11" value="" style="endArrow=classic;html=1;rounded=0;entryX=0;entryY=0.5;entryDx=0;entryDy=0;" parent="1" source="ctY38Mj-LC-3eXCGMCmi-7" target="ctY38Mj-LC-3eXCGMCmi-8" edge="1">
          <mxGeometry width="50" height="50" relative="1" as="geometry">
            <mxPoint x="400" y="560" as="sourcePoint" />
            <mxPoint x="450" y="510" as="targetPoint" />
          </mxGeometry>
        </mxCell>
        <mxCell id="ctY38Mj-LC-3eXCGMCmi-12" value="" style="endArrow=classic;html=1;rounded=0;entryX=0;entryY=0.833;entryDx=0;entryDy=0;exitX=1;exitY=0.5;exitDx=0;exitDy=0;entryPerimeter=0;" parent="1" source="ctY38Mj-LC-3eXCGMCmi-7" target="ctY38Mj-LC-3eXCGMCmi-9" edge="1">
          <mxGeometry width="50" height="50" relative="1" as="geometry">
            <mxPoint x="370" y="490" as="sourcePoint" />
            <mxPoint x="420" y="490" as="targetPoint" />
          </mxGeometry>
        </mxCell>
        <mxCell id="ctY38Mj-LC-3eXCGMCmi-13" value="" style="endArrow=classic;html=1;rounded=0;entryX=-0.038;entryY=0.3;entryDx=0;entryDy=0;entryPerimeter=0;" parent="1" target="ctY38Mj-LC-3eXCGMCmi-10" edge="1">
          <mxGeometry width="50" height="50" relative="1" as="geometry">
            <mxPoint x="360" y="500" as="sourcePoint" />
            <mxPoint x="425" y="440.02" as="targetPoint" />
          </mxGeometry>
        </mxCell>
        <mxCell id="ctY38Mj-LC-3eXCGMCmi-18" value="" style="endArrow=none;dashed=1;html=1;dashPattern=1 3;strokeWidth=2;rounded=0;" parent="1" edge="1">
          <mxGeometry width="50" height="50" relative="1" as="geometry">
            <mxPoint x="480" y="499.5" as="sourcePoint" />
            <mxPoint x="540" y="500" as="targetPoint" />
          </mxGeometry>
        </mxCell>
        <mxCell id="ctY38Mj-LC-3eXCGMCmi-19" value="" style="endArrow=none;dashed=1;html=1;dashPattern=1 3;strokeWidth=2;rounded=0;" parent="1" edge="1">
          <mxGeometry width="50" height="50" relative="1" as="geometry">
            <mxPoint x="230" y="499.5" as="sourcePoint" />
            <mxPoint x="290" y="500" as="targetPoint" />
          </mxGeometry>
        </mxCell>
        <mxCell id="ctY38Mj-LC-3eXCGMCmi-20" value="状態 `i` から各状態 `j` に向けて&lt;br style=&quot;font-size: 21px;&quot;&gt;確率 `p_{i, j}` の確率で `\Delta X = \Delta x_{i,j}` の遷移が起きる" style="text;html=1;strokeColor=none;fillColor=none;align=left;verticalAlign=middle;whiteSpace=wrap;rounded=0;fontSize=21;" parent="1" vertex="1">
          <mxGeometry x="160" y="610" width="550" height="100" as="geometry" />
        </mxCell>
      </root>
    </mxGraphModel>
  </diagram>
</mxfile>
